<svg xmlns="http://www.w3.org/2000/svg" version="1.1" xmlns:xlink="http://www.w3.org/1999/xlink" xmlns:svgjs="http://svgjs.com/svgjs" width="1440" height="820" preserveAspectRatio="none" viewBox="0 0 1440 820"><g mask="url(&quot;#SvgjsMask2465&quot;)" fill="none"><rect width="1440" height="820" x="0" y="0" fill="url(#SvgjsRadialGradient2466)"></rect><path d="M0 0L12.2 0L0 127.89z" fill="rgba(255, 255, 255, .1)"></path><path d="M0 127.89L12.2 0L764.0300000000001 0L0 278.88z" fill="rgba(255, 255, 255, .075)"></path><path d="M0 278.88L764.0300000000001 0L985.6400000000001 0L0 323.6z" fill="rgba(255, 255, 255, .05)"></path><path d="M0 323.6L985.6400000000001 0L1228.8100000000002 0L0 613.22z" fill="rgba(255, 255, 255, .025)"></path><path d="M1440 820L754.4 820L1440 543.28z" fill="rgba(0, 0, 0, .1)"></path><path d="M1440 543.28L754.4 820L719.39 820L1440 313.79999999999995z" fill="rgba(0, 0, 0, .075)"></path><path d="M1440 313.79999999999995L719.39 820L632.99 820L1440 273.03999999999996z" fill="rgba(0, 0, 0, .05)"></path><path d="M1440 273.03999999999996L632.99 820L337.84000000000003 820L1440 95.23999999999995z" fill="rgba(0, 0, 0, .025)"></path></g><defs><mask id="SvgjsMask2465"><rect width="1440" height="820" fill="#ffffff"></rect></mask><radialGradient cx="50%" cy="50%" r="828.55" gradientUnits="userSpaceOnUse" id="SvgjsRadialGradient2466"><stop stop-color="rgba(255, 255, 255, 1)" offset="0"></stop><stop stop-color="rgba(131, 0, 15, 0.16)" offset="1"></stop></radialGradient></defs></svg>